<svg width="24" height="24" viewBox="0 0 24 24" fill="none" xmlns="http://www.w3.org/2000/svg">
<path d="M19 12C19 11.5602 18.9587 11.12 18.877 10.6926C18.8402 10.4992 18.6708 10.3594 18.4741 10.3594H12.0273C11.8006 10.3594 11.6172 10.5428 11.6172 10.7695V13.2305C11.6172 13.4572 11.8006 13.6406 12.0273 13.6406H15.335C15.1289 14.0578 14.8449 14.4198 14.5114 14.7244L16.8296 17.0426C18.1635 15.7718 19 13.9835 19 12Z" fill="#121212"/>
<path d="M12 8.28125C12.8047 8.28125 13.5701 8.5368 14.2133 9.02065C14.376 9.14282 14.6055 9.128 14.7497 8.98259L16.5001 7.23221C16.5814 7.15089 16.625 7.03913 16.6198 6.92418C16.6146 6.80923 16.5617 6.70187 16.4736 6.62777C15.2211 5.57799 13.6322 5 12 5C9.59783 5 7.47571 6.22101 6.22121 8.07486L8.62877 10.4824C9.20315 9.18862 10.4955 8.28125 12 8.28125Z" fill="#121212"/>
<path d="M12 19C13.5657 19 15.0076 18.475 16.1727 17.6004L13.811 15.2386C13.2711 15.5426 12.6542 15.7188 12 15.7188C10.4955 15.7188 9.20315 14.8114 8.62877 13.5176L6.22121 15.9251C7.47571 17.779 9.59783 19 12 19Z" fill="#121212"/>
<path d="M8.34097 12.5908C8.30955 12.3972 8.28125 12.2023 8.28125 12C8.28125 11.7978 8.30955 11.6028 8.34097 11.4093L5.76727 8.83557C5.28033 9.78659 5 10.8602 5 12C5 13.1398 5.28033 14.2135 5.76729 15.1645L8.34097 12.5908Z" fill="#121212"/>
</svg>
